# xmcd CD database file
#
# Track frame offsets:
#	150
#	31450
#	58307
#	83582
#	123466
#	158248
#	190729
#	229376
#	265386
#	298695
#
# Disc length: 4343 seconds
#
# Revision: 0
# Processed by: cddbd v1.5.2PL0 Copyright (c) Steve Scherf et al.
# Submitted via: CDex 1.70beta2
#
DISCID=9010f50a
DTITLE=Ilija Trojanow - Nomade auf vier Kontinenten
DYEAR=2007
DGENRE=Hoerbuch
TTITLE0=Nomade 6-01
TTITLE1=Nomade 6-02
TTITLE2=Nomade 6-03
TTITLE3=Nomade 6-04
TTITLE4=Nomade 6-05
TTITLE5=Nomade 6-06
TTITLE6=Nomade 6-07
TTITLE7=Nomade 6-08
TTITLE8=Nomade6-09
TTITLE9=Nomade 6-10
EXTD=YEAR: 2007
EXTT0=
EXTT1=
EXTT2=
EXTT3=
EXTT4=
EXTT5=
EXTT6=
EXTT7=
EXTT8=
EXTT9=
PLAYORDER=
